<svg width="52" height="52" viewBox="0 0 52 52" fill="none" xmlns="http://www.w3.org/2000/svg">
<path d="M39.9803 31.0904C40.0617 30.9053 39.8768 30.7175 39.6866 30.7861C34.4205 32.69 28.3648 31.5665 24.3913 27.5904C20.4362 23.633 19.3113 17.6098 21.1794 12.3563C21.2565 12.1395 21.0427 11.9289 20.8329 12.023C20.8187 12.0294 20.8046 12.0358 20.7904 12.0422C17.8847 13.3557 15.299 15.5715 13.7803 18.363C12.1569 21.3472 11.6215 24.8034 12.2658 28.1394C12.9102 31.4752 14.6941 34.483 17.312 36.6469C19.9298 38.8108 23.2183 39.9964 26.614 40C29.5339 40.0002 32.3871 39.1259 34.8063 37.4898C37.0398 35.9794 38.8092 33.6914 39.9245 31.2155C39.9433 31.1739 39.9618 31.1321 39.9803 31.0904Z" fill="#0F0F0F" stroke="#0F0F0F" stroke-width="3" stroke-linecap="round" stroke-linejoin="round"/>
</svg>
